<?xml version="1.0" encoding="UTF-8" standalone="no"?>
<!-- Created with Inkscape (http://www.inkscape.org/) -->

<svg
   version="1.1"
   id="svg1"
   width="380.0011"
   height="164.06467"
   viewBox="0 0 380.0011 164.06467"
   xmlns="http://www.w3.org/2000/svg"
   xmlns:svg="http://www.w3.org/2000/svg">
  <defs
     id="defs1" />
  <g
     id="g1"
     transform="translate(-22,-27.042387)">
    <path
       style="fill:#ffffff"
       d="M 161.98501,189.55116 C 159.03689,187.94667 153,179.89215 153,177.56321 c 0,-0.88541 5.7375,-7.18095 12.75,-13.99009 7.0125,-6.80914 12.38345,-12.7527 11.93544,-13.20791 -0.448,-0.45521 -2.023,-0.10815 -3.5,0.77124 -1.47699,0.87939 -6.96044,4.19861 -12.18544,7.37603 -14.72989,8.95754 -16.11917,9.44048 -27.22976,9.46556 -12.16409,0.0275 -16.34875,-1.4969 -21.19878,-7.72214 C 111.60716,157.73464 110,155.29563 110,154.83589 110,154.37615 107.59655,154 104.659,154 c -5.06906,0 -9.719687,-0.46278 -31.544304,-3.13893 l -9.385304,-1.15084 -4.563398,4.76187 -4.563398,4.76187 -7.551298,-0.44739 C 42.438263,158.51327 37.749018,157.54395 35,156.29544 29.975185,154.01333 24.240742,148.7634 22.888801,145.20753 22.399961,143.92178 22,124.20617 22,101.39506 22,62.440154 22.116892,59.691197 23.923961,56.149049 29.756823,44.715695 53.108956,31.624502 74.179348,27.975907 c 9.87399,-1.709801 27.762962,-0.952216 30.869212,1.307289 9.72577,7.074589 8.80164,6.717123 17.34932,6.711012 4.45617,-0.0032 10.80212,-0.47031 14.10212,-1.038054 31.30806,-5.38635 119.69194,-5.38635 151,0 3.3,0.567744 9.64595,1.034868 14.10212,1.038054 8.54768,0.0061 7.62355,0.363577 17.34932,-6.711012 3.10625,-2.259505 20.99522,-3.01709 30.86921,-1.307289 15.17225,2.62726 35.57621,12.021614 44.11884,20.313115 8.33827,8.093152 8.06051,6.263146 8.06051,53.106038 0,22.81111 -0.39996,42.52672 -0.8888,43.81247 -1.35194,3.55587 -7.08639,8.8058 -12.1112,11.08791 -2.74902,1.24851 -7.43826,2.21783 -12.0513,2.49114 l -7.5513,0.44739 -4.56339,-4.76187 -4.5634,-4.76187 -9.38531,1.15084 C 329.06069,153.53722 324.41006,154 319.341,154 c -2.93755,0 -5.341,0.37615 -5.341,0.83589 0,0.45974 -1.60716,2.89875 -3.57146,5.42001 -4.85003,6.22524 -9.03469,7.74959 -21.19878,7.72214 -11.11059,-0.0251 -12.49987,-0.50802 -27.22976,-9.46556 -5.225,-3.17742 -10.70845,-6.49664 -12.18544,-7.37603 -1.477,-0.87939 -3.052,-1.22645 -3.5,-0.77124 -0.44801,0.45521 4.92294,6.39877 11.93544,13.20791 7.0125,6.80914 12.75,13.10468 12.75,13.99009 0,2.43507 -6.11765,10.44627 -9.19067,12.03539 -3.94648,2.0408 -96.06778,1.99703 -99.82432,-0.0474 z m -55.00032,-63.36018 c -0.0149,-19.10783 -0.55422,-23.19309 -2.87289,-21.76008 -1.5861,0.98027 -1.54082,39.74008 0.0483,41.32918 0.63805,0.63805 1.53805,0.92649 2,0.64098 0.46196,-0.2855 0.83303,-9.38004 0.82461,-20.21008 z M 321,124.93657 c 0,-19.2481 -0.68381,-23.62385 -3.09649,-19.81469 -1.00618,1.58856 -1.23632,40.21197 -0.24552,41.20278 0.3619,0.36189 1.2619,0.15679 2,-0.45578 C 320.69806,145.0057 321,140.29613 321,124.93657 Z M 90.984687,124.19098 c -0.01486,-19.10783 -0.554218,-23.19309 -2.872884,-21.76008 -1.586104,0.98027 -1.540828,39.74008 0.04828,41.32918 0.638045,0.63805 1.538045,0.92649 2,0.64098 0.461956,-0.2855 0.833028,-9.38004 0.824606,-20.21008 z M 337,122.93657 c 0,-19.2481 -0.68381,-23.623845 -3.09649,-19.81469 -1.00618,1.58856 -1.23632,40.21197 -0.24552,41.20278 0.3619,0.36189 1.2619,0.15679 2,-0.45578 C 336.69806,143.0057 337,138.29613 337,122.93657 Z M 74.984687,122.19098 c -0.01486,-19.10783 -0.554218,-23.193092 -2.872884,-21.76008 -1.586104,0.98027 -1.540828,39.74008 0.04828,41.32918 0.638045,0.63805 1.538045,0.92649 2,0.64098 0.461956,-0.2855 0.833028,-9.38004 0.824606,-20.21008 z M 353,120.93657 c 0,-19.2481 -0.68381,-23.623845 -3.09649,-19.81469 -1.00618,1.58856 -1.23632,40.21197 -0.24552,41.20278 0.3619,0.36189 1.2619,0.15679 2,-0.45578 C 352.69806,141.0057 353,136.29613 353,120.93657 Z m -178,-9.75524 c 0,-0.45027 -4.49525,-5.06277 -9.98944,-10.25 -6.03513,-5.697948 -9.99362,-10.21058 -10,-11.399885 -0.006,-1.082705 2.33657,-4.345205 5.20528,-7.25 L 165.43168,77 h 46.50271 46.50272 l 5.28144,5.21584 c 2.9048,2.868712 5.28145,6.101714 5.28145,7.184448 0,1.194116 -4.02411,5.805927 -10.22851,11.722322 -5.62568,5.36454 -9.93603,10.04619 -9.57855,10.40367 0.62136,0.62136 20.47249,-11.628775 29.7071,-18.332256 C 283.16562,90.097602 283.61223,90 293.51518,90 c 10.55882,0 11.76774,0.400174 17.30625,5.728677 1.56147,1.502259 4.00247,1.542951 18.85182,0.314261 C 341.49404,95.064841 349,93.507615 349,92.033305 c 0,-1.357121 -10.44051,-4.967772 -20.08454,-6.945853 -11.13302,-2.283488 -17.07187,-5.221374 -21.51447,-10.642973 -5.57139,-6.799147 -14.79957,-9.62106 -42.74833,-13.072139 -18.76286,-2.316815 -86.54246,-2.316815 -105.30532,0 -27.94876,3.451079 -37.17694,6.272992 -42.74833,13.072139 -4.4426,5.421599 -10.38145,8.359485 -21.514469,10.642973 C 85.440512,87.065533 75,90.676184 75,92.033305 c 0,1.47431 7.505956,3.031536 19.32675,4.009633 14.84935,1.22869 17.29035,1.187998 18.85182,-0.314261 C 118.69334,90.423012 119.95297,90 130.23726,90 h 9.96755 l 14.6476,9.630437 C 162.90858,104.92718 170.4,109.85357 171.5,110.57798 c 2.3451,1.54439 3.5,1.74347 3.5,0.60335 z"
       id="path1" />
  </g>
</svg>
