<?xml version="1.0" encoding="UTF-8" standalone="no"?>
<!-- Created with Inkscape (http://www.inkscape.org/) -->

<svg
   version="1.1"
   id="svg1"
   width="395.52698"
   height="179.59995"
   viewBox="0 0 395.52698 179.59995"
   xmlns="http://www.w3.org/2000/svg"
   xmlns:svg="http://www.w3.org/2000/svg">
  <defs
     id="defs1" />
  <g
     id="g1"
     transform="translate(-14.236524,-18.960972)">
    <path
       style="fill:#ffffff;fill-opacity:1;stroke:#000000;stroke-width:16;stroke-dasharray:none;stroke-opacity:1"
       d="m 172.02129,190.32368 c -10.65681,-0.45509 -12.10669,-1.24496 -16.73768,-9.11839 -2.52606,-4.29471 -2.52606,-4.29471 11.10443,-18 14.38544,-14.46438 15.7606,-17.73248 4.34032,-10.3149 C 151.77083,165.20347 147.22515,167 135.02736,167 c -13.35985,0 -16.53008,-1.15513 -21.66658,-7.8946 -4.2711,-5.60401 -5.03507,-5.93836 -13.86078,-6.06631 -7.202329,-0.10441 -27.997936,-2.34676 -32.576202,-3.51263 -2.169331,-0.55242 -3.380325,0.14387 -7.667691,4.40875 -2.800318,2.78564 -5.691027,5.04503 -6.423797,5.02088 C 37.730224,158.45833 27.526724,153.70565 23.884898,145.4727 21.071513,139.11257 22.114903,61.80391 25.09419,55.871787 35.533485,35.085879 92.954693,18.317149 107.43516,31.825732 c 6.24065,5.821795 14.32113,6.377559 36.56484,2.51488 18.74382,-3.254914 117.25618,-3.254914 136,0 22.24371,3.862679 30.32419,3.306915 36.56484,-2.51488 14.48047,-13.508583 71.90168,3.260147 82.34097,24.046055 2.97929,5.932123 4.02268,83.240783 1.20929,89.600913 -3.64182,8.23295 -13.84532,12.98563 -28.94741,13.48339 -0.73277,0.0242 -3.62348,-2.23524 -6.4238,-5.02088 -4.28736,-4.26488 -5.49836,-4.96117 -7.66769,-4.40875 -4.57826,1.16587 -25.37387,3.40822 -32.5762,3.51263 -8.82571,0.12795 -9.58968,0.4623 -13.86078,6.06631 -5.1365,6.73947 -8.30673,7.8946 -21.66658,7.8946 -12.19779,0 -16.74347,-1.79653 -35.701,-14.10961 -11.42028,-7.41758 -10.04512,-4.14948 4.34032,10.3149 13.63049,13.70529 13.63049,13.70529 11.10443,18 -5.687,9.66881 -2.32914,9.01136 -47.41309,9.28319 -21.89182,0.132 -44.06872,0.0578 -49.28201,-0.1648 z m -6.06598,-88.81155 c -5.75042,-5.72582 -10.60974,-11.154845 -10.7985,-12.0645 -0.20374,-0.98188 1.92087,-3.846823 5.22876,-7.050773 C 165.95752,77 165.95752,77 212,77 c 46.04248,0 46.04248,0 51.52124,5.306597 3.01332,2.918629 5.47876,5.989318 5.47876,6.823755 0,0.834437 -4.725,6.197105 -10.5,11.917038 -14.29644,14.16013 -13.93427,15.03321 1.97112,4.7517 4.93412,-3.1895 9.35838,-5.79909 9.8317,-5.79909 0.47332,0 2.73632,-1.515513 5.02888,-3.367808 6.00193,-4.849306 7.67571,-5.525976 15.45779,-6.249245 9.19198,-0.854304 13.28688,0.02243 17.35402,3.715554 C 311.5,97.146332 311.5,97.146332 325.5,96.53821 c 15.35938,-0.667169 21.00054,-1.610178 23.28238,-3.89202 1.90003,-1.900028 -1.99082,-3.684636 -14.6765,-6.731636 C 316.83081,81.765216 314.88804,80.919129 309,74.980772 296.48922,62.363086 278.7068,59.530721 212,59.530721 c -66.7068,0 -84.48922,2.832365 -97,15.450051 -5.88804,5.938357 -7.83081,6.784444 -25.105879,10.933782 -12.685678,3.047 -16.57653,4.831608 -14.676503,6.731636 2.281842,2.281842 7.922998,3.224851 23.282382,3.89202 14,0.608122 14,0.608122 17.35649,-2.439709 7.37515,-6.696933 22.86785,-5.500603 32.81181,2.533691 2.29256,1.852295 4.55556,3.367808 5.02888,3.367808 0.47332,0 4.9432,2.64021 9.93307,5.86712 15.5653,10.06598 15.99662,9.25809 2.32506,-4.35499 z"
       id="path1" />
  </g>
</svg>
